<svg xmlns="http://www.w3.org/2000/svg" viewBox="0 0 512 512">
  <defs>
    <linearGradient id="bg" x1="0" y1="0" x2="1" y2="1">
      <stop offset="0" stop-color="#f9e6df"/>
      <stop offset="1" stop-color="#f3c8d6"/>
    </linearGradient>
    <linearGradient id="coin" x1="0" y1="0" x2="1" y2="1">
      <stop offset="0" stop-color="#b47b5b"/>
      <stop offset="1" stop-color="#754831"/>
    </linearGradient>
  </defs>
  <rect width="512" height="512" rx="112" fill="#fffaf3"/>
  <rect x="28" y="28" width="456" height="456" rx="100" fill="url(#bg)"/>
  <circle cx="256" cy="260" r="154" fill="#fffaf3" opacity=".92"/>
  <path d="M256 355c-14-12-111-73-111-143 0-48 60-71 111-15 51-56 111-33 111 15 0 70-97 131-111 143z" fill="#d94d7d"/>
  <circle cx="256" cy="252" r="74" fill="url(#coin)" stroke="#fffaf3" stroke-width="10"/>
  <text x="256" y="278" text-anchor="middle" font-family="Trebuchet MS,Arial,sans-serif" font-size="82" font-weight="900" fill="#fffaf3">Y</text>
  <path d="M110 118l8 20 20 8-20 8-8 20-8-20-20-8 20-8z" fill="#fffaf3"/>
  <path d="M398 345l6 15 15 6-15 6-6 15-6-15-15-6 15-6z" fill="#fffaf3"/>
  <circle cx="377" cy="128" r="9" fill="#fffaf3"/>
  <circle cx="135" cy="378" r="7" fill="#fffaf3"/>
</svg>